# Blender v2.77 (sub 0) OBJ File: ''
# www.blender.org
mtllib Blaster.mtl
o Cube_Cube.001
v -0.009651 -0.009651 -0.014502
v -0.009651 0.009651 -0.014502
v 0.009651 -0.009651 -0.014502
v 0.009651 0.009651 -0.014502
v 0.000000 0.000000 -0.201363
v 0.000000 0.000000 0.028795
vt 0.5000 0.1895
vt 0.5000 1.0000
vt 0.2500 0.1938
vt 1.0000 1.0000
vt 0.7500 0.1938
vt 1.0000 0.1895
vt 0.0000 0.1938
vt 0.0954 0.0000
vt 0.2500 0.1895
vt 0.2500 1.0000
vt 0.7500 0.1895
vt 0.7500 1.0000
vt 0.5000 0.1938
vt 0.3454 0.0000
vt 0.5954 0.0000
vt 0.8454 0.0000
vn -0.9987 0.0000 -0.0516
vn 0.9987 0.0000 -0.0516
vn 0.0000 -0.9760 0.2176
vn 0.0000 -0.9987 -0.0516
vn 0.0000 0.9987 -0.0516
vn -0.9760 0.0000 0.2176
vn 0.0000 0.9760 0.2176
vn 0.9760 0.0000 0.2176
usemtl None
s off
f 2/1/1 5/2/1 1/3/1
f 5/4/2 4/5/2 3/6/2
f 3/7/3 6/8/3 1/9/3
f 1/9/4 5/10/4 3/7/4
f 4/11/5 5/12/5 2/13/5
f 2/1/6 1/3/6 6/14/6
f 2/13/7 6/15/7 4/11/7
f 3/6/8 4/5/8 6/16/8
