# Blender v2.77 (sub 0) OBJ File: ''
# www.blender.org
mtllib Cube.mtl
o Cube.001
v 4.515333 -4.515332 -4.515334
v -4.515334 -4.515334 4.515331
v -4.515331 -4.515332 -4.515336
v -4.515333 4.515334 -4.515332
v 4.515330 4.515332 4.515337
v 4.515336 4.515334 -4.515330
v 4.515333 -4.515334 4.515332
v -4.515335 4.515332 4.515333
vt 0.6667 0.0000
vt 0.3333 0.3333
vt 0.3333 0.0000
vt 0.0000 0.0000
vt 0.3333 0.3333
vt 0.0000 0.3333
vt 0.3333 1.0000
vt 0.0000 0.6667
vt 0.3333 0.6667
vt 0.3333 0.6667
vt 0.6667 0.3333
vt 0.6667 0.6667
vt 1.0000 0.3333
vt 0.6667 0.0000
vt 1.0000 0.0000
vt 0.3333 0.3333
vt 0.0000 0.6667
vt 0.6667 0.3333
vt 0.3333 0.0000
vt 0.0000 1.0000
vt 0.3333 0.3333
vt 0.6667 0.3333
vt 0.3333 0.6667
vn 0.0000 -1.0000 -0.0000
vn -0.0000 1.0000 0.0000
vn 1.0000 0.0000 0.0000
vn -0.0000 -0.0000 1.0000
vn -1.0000 -0.0000 -0.0000
vn 0.0000 0.0000 -1.0000
usemtl Material.001
s 1
f 1/1/1 2/2/1 3/3/1
f 4/4/2 5/5/2 6/6/2
f 6/7/3 7/8/3 1/9/3
f 5/10/4 2/11/4 7/12/4
f 2/13/5 4/14/5 3/15/5
f 1/16/6 4/17/6 6/6/6
f 1/1/1 7/18/1 2/2/1
f 4/4/2 8/19/2 5/5/2
f 6/7/3 5/20/3 7/8/3
f 5/10/4 8/21/4 2/11/4
f 2/13/5 8/22/5 4/14/5
f 1/16/6 3/23/6 4/17/6
