# Blender v2.77 (sub 0) OBJ File: ''
# www.blender.org
mtllib ProjStarD.mtl
o ProjStar_Cone
v -0.400000 0.393346 0.000000
v -0.400000 0.003395 -1.000000
v -0.400000 -0.386557 -0.000000
v 1.600000 0.003395 0.000000
v -0.400000 0.003395 1.000000
v -0.400000 0.251380 0.000000
v -0.400000 0.003395 -0.282201
v -0.400000 -0.244591 -0.000000
v -0.400000 0.003395 0.282201
v -0.317533 0.251380 0.000000
v -0.317533 0.003395 -0.282201
v -0.317533 -0.244591 -0.000000
v -0.317533 0.003395 0.282201
v -0.273123 0.250881 0.153113
v -0.072859 0.455202 0.153113
v -0.273123 0.250881 -0.153113
v -0.072859 0.455202 -0.153113
v 0.004661 0.250881 0.153113
v 0.004661 0.480470 0.153113
v 0.004661 0.250881 -0.153113
v 0.004661 0.480470 -0.153113
v -0.072859 0.503066 0.153113
v -0.072859 0.503066 -0.153113
v 0.004661 0.503066 -0.153113
v 0.004661 0.503066 0.153113
v -0.072859 0.455202 -0.205769
v 0.051765 0.455202 -0.205769
v 0.051765 0.455202 0.205769
v -0.072859 0.455202 0.205769
v -0.072859 0.503066 -0.205769
v 0.051765 0.503066 -0.205769
v 0.051765 0.503066 0.205769
v -0.072859 0.503066 0.205769
v -0.112540 0.474950 0.153113
v -0.112540 0.474950 -0.153113
vt 0.7330 0.4332
vt 1.0000 0.0000
vt 1.0000 0.5451
vt 0.5037 0.0000
vt 0.5037 0.5457
vt 0.2508 0.1073
vt 0.0000 0.2184
vt 0.5037 0.3309
vt 0.7084 0.7380
vt 0.7084 1.0000
vt 0.6349 0.8367
vt 0.6711 0.7506
vt 0.7682 0.5451
vt 0.7667 0.6140
vt 0.7435 0.6140
vt 0.7450 0.5451
vt 0.5037 0.5451
vt 0.5772 0.7084
vt 0.5037 0.8072
vt 0.5410 0.7946
vt 0.1049 0.6375
vt 0.0000 0.6492
vt 0.0000 0.5575
vt 0.1049 0.5457
vt 0.3420 0.6136
vt 0.3420 0.6741
vt 0.3188 0.6741
vt 0.3188 0.6136
vt 0.7914 0.5455
vt 0.7914 0.6240
vt 0.7682 0.6237
vt 0.7682 0.5451
vt 0.7682 0.6829
vt 0.7450 0.6829
vt 0.3323 0.5946
vt 0.3188 0.5946
vt 0.3898 0.5457
vt 0.4474 0.5946
vt 0.4545 0.6136
vt 0.3898 0.6136
vt 0.3898 0.5457
vt 0.3188 0.5457
vt 0.3188 0.6205
vt 0.2541 0.6205
vt 0.2541 0.5457
vt 0.3252 0.6136
vt 0.3898 0.6136
vt 0.1049 0.6205
vt 0.1049 0.5457
vt 0.1831 0.5457
vt 0.1831 0.6205
vt 0.4827 0.6320
vt 0.4827 0.5585
vt 0.4959 0.5457
vt 0.4959 0.6446
vt 0.4608 0.6321
vt 0.4608 0.5586
vt 0.4608 0.5946
vt 0.7215 0.5580
vt 0.7215 0.6327
vt 0.7084 0.6456
vt 0.7084 0.5451
vt 0.3690 0.6136
vt 0.3825 0.6136
vt 0.3825 0.6264
vt 0.3690 0.6264
vt 0.8049 0.5451
vt 0.8049 0.6456
vt 0.7914 0.6456
vt 0.7914 0.5451
vt 0.3420 0.6440
vt 0.3420 0.6136
vt 0.3555 0.6136
vt 0.3555 0.6440
vt 0.3555 0.6440
vt 0.3555 0.6136
vt 0.3690 0.6136
vt 0.3690 0.6440
vt 0.7435 0.5580
vt 0.7435 0.5451
vt 0.3959 0.6264
vt 0.3825 0.6264
vt 0.3825 0.6136
vt 0.3959 0.6136
vt 0.4608 0.5459
vt 0.7435 0.6327
vt 0.7435 0.6456
vt 0.4608 0.6448
vt 0.2541 0.5457
vt 0.2541 0.6205
vt 0.1831 0.6205
vt 0.1831 0.5457
vn 0.1787 0.9167 -0.3575
vn 0.1787 -0.9167 -0.3575
vn 0.1787 -0.9167 0.3575
vn 0.1787 0.9167 0.3575
vn -1.0000 -0.0000 -0.0000
vn 0.0000 -0.7512 -0.6601
vn 0.0000 0.7512 0.6601
vn 0.0000 0.7512 -0.6601
vn 0.0000 -0.7512 0.6601
vn 0.0000 0.0000 1.0000
vn -0.0000 0.0000 -1.0000
vn 1.0000 0.0000 0.0000
vn 0.0000 -1.0000 0.0000
vn 0.0000 1.0000 0.0000
vn -0.4727 -0.8812 0.0000
vn 0.1190 -0.9521 -0.2817
vn 0.1190 -0.9521 0.2817
vn -0.7831 0.6219 0.0000
usemtl None
s off
f 1/1/1 4/2/1 2/3/1
f 2/4/2 4/5/2 3/6/2
f 3/6/3 4/5/3 5/7/3
f 5/8/4 4/2/4 1/1/4
f 1/9/5 2/10/5 7/11/5 6/12/5
f 9/13/6 6/14/6 10/15/6 13/16/6
f 5/17/5 1/9/5 6/12/5 9/18/5
f 2/10/5 3/19/5 8/20/5 7/11/5
f 3/19/5 5/17/5 9/18/5 8/20/5
f 10/21/5 11/22/5 12/23/5 13/24/5
f 7/25/7 8/26/7 12/27/7 11/28/7
f 8/29/8 9/30/8 13/31/8 12/32/8
f 6/14/9 7/33/9 11/34/9 10/15/9
f 15/35/10 22/36/10 14/37/10
f 17/38/11 21/39/11 20/40/11 16/41/11
f 21/42/12 19/43/12 18/44/12 20/45/12
f 19/46/10 15/35/10 14/37/10 18/47/10
f 14/48/13 16/49/13 20/50/13 18/51/13
f 24/52/14 25/53/14 32/54/14 31/55/14
f 25/53/14 24/52/14 23/56/14 22/57/14
f 17/38/11 16/41/11 23/58/11
f 19/59/15 21/60/15 27/61/15 28/62/15
f 22/63/5 15/64/5 29/65/5 33/66/5
f 28/67/12 27/68/12 31/69/12 32/70/12
f 29/71/10 28/72/10 32/73/10 33/74/10
f 27/75/11 26/76/11 30/77/11 31/78/11
f 15/79/16 19/59/16 28/62/16 29/80/16
f 17/81/5 23/82/5 30/83/5 26/84/5
f 25/53/14 22/57/14 33/85/14 32/54/14
f 21/60/17 17/86/17 26/87/17 27/61/17
f 23/56/14 24/52/14 31/55/14 30/88/14
f 16/89/18 14/90/18 22/91/18 23/92/18
